<?xml version="1.0" standalone="no"?>
<!DOCTYPE svg PUBLIC "-//W3C//DTD SVG 1.1//EN" "http://www.w3.org/Graphics/SVG/1.1/DTD/svg11.dtd" >
<svg>
<metadata>
Created by FontForge 20090622 at Sat Feb  6 14:32:07 2016
 By deploy user
Copyright (c) Lukas Bischoff, 2011. All rights reserved.
</metadata>
<defs>
<font id="DOCK11-Heavy" horiz-adv-x="319" >
  <font-face 
    font-family="DOCK11"
    font-weight="900"
    font-stretch="normal"
    units-per-em="1000"
    panose-1="0 0 0 0 0 0 0 0 0 0"
    ascent="800"
    descent="-200"
    x-height="494"
    cap-height="694"
    bbox="-13 -145 976 816"
    underline-thickness="50"
    underline-position="-50"
    unicode-range="U+000D-U+2122"
  />
<missing-glyph 
 />
    <glyph glyph-name=".notdef" 
 />
    <glyph glyph-name=".null" horiz-adv-x="0" 
 />
    <glyph glyph-name=".null" horiz-adv-x="0" 
 />
    <glyph glyph-name="nonmarkingreturn" horiz-adv-x="333" 
 />
    <glyph glyph-name="CR" unicode="&#xd;" 
 />
    <glyph glyph-name="space" unicode=" " 
 />
    <glyph glyph-name="exclam" unicode="!" horiz-adv-x="304" 
d="M153 -29q46 0 78.5 32t32.5 78t-32.5 78.5t-78.5 32.5t-78.5 -32.5t-32.5 -78.5t32.5 -78t78.5 -32zM263 694h-220l13 -474h193z" />
    <glyph glyph-name="quotedbl" unicode="&#x22;" horiz-adv-x="436" 
d="M241 679l-106 38l-87 -156l106 -38zM393 679l-106 38l-86 -156l106 -38z" />
    <glyph glyph-name="numbersign" unicode="#" horiz-adv-x="720" 
d="M677 413h-112l-12 -52h124v-155h-172l-38 -125h-167l38 125h-66l-38 -125h-166l37 125h-63v155h111l13 52h-124v154h172l37 126h167l-38 -126h66l38 126h167l-38 -126h64v-154zM386 361l14 52h-66l-14 -52h66z" />
    <glyph glyph-name="dollar" unicode="$" horiz-adv-x="628" 
d="M421 423l-70 13h-2v77q23 -2 65.5 -9.5t73.5 -13.5l31 -7l47 209q-139 25 -215 29h-2v72h-80v-75q-73 -10 -129 -52q-48 -36 -72.5 -78t-32.5 -103q-6 -41 5.5 -82t44 -75.5t80.5 -44.5q31 -8 93 -17q2 0 5.5 -1t5.5 -1v-83l-26 3q-36 3 -73 8t-56 9l-19 4l-44 -206
q122 -25 204 -28h14v-71h80v75q92 12 145 52q48 36 70 74.5t31 99.5q12 74 -35 139.5t-139 82.5zM387 208q-4 -24 -38 -29v73q43 -12 38 -44zM233 497q8 22 36 22v-66q-1 0 -3 1q-12 4 -19 7t-13 13t-1 23z" />
    <glyph glyph-name="ampersand" unicode="&#x26;" horiz-adv-x="620" 
d="M495 196q0 -4 4.5 -8.5t8.5 -4.5h86v-183h-86q-64 0 -114 32q-61 -40 -133 -40q-96 0 -165 69t-69 164q0 100 72 172q-21 43 -21 95q0 94 66 160q68 67 161 67q65 0 119 -33.5t84 -90.5l-166 -85q-18 22 -39 22q-14 0 -24.5 -10.5t-10.5 -24.5q0 -13 9 -22.5t22 -11.5v0
h4h3h289l-15 -192h-85v-75zM318 215v56h-50q-20 0 -34.5 -13t-14.5 -33q0 -31 15 -46q19 -13 34 -13q20 0 35 13.5t15 35.5z" />
    <glyph glyph-name="asterisk" unicode="*" horiz-adv-x="360" 
d="M335 546l-83 -10l34 -77l-50 -30l-52 66l-45 -68l-53 28l31 79l-84 10v59l80 11l-32 74l51 30l50 -65l47 68l52 -28l-32 -78l86 -10v-59z" />
    <glyph glyph-name="plus" unicode="+" horiz-adv-x="453" 
d="M272 184v111h103v103h-103v102h-103v-102h-110v-103h110v-111h103z" />
    <glyph glyph-name="comma" unicode="," horiz-adv-x="272" 
d="M226 77q0 -15 -1 -18v-2l-59 -157l-99 37l23 63q-44 27 -44 77q0 37 26.5 63.5t63.5 26.5q38 0 64 -26.5t26 -63.5z" />
    <glyph glyph-name="hyphen" unicode="-" horiz-adv-x="437" 
d="M56 295h316v97h-316v-97z" />
    <glyph glyph-name="period" unicode="." horiz-adv-x="268" 
d="M138 -1q37 0 63.5 26t26.5 63t-26.5 63.5t-63.5 26.5t-63.5 -26.5t-26.5 -63.5t26 -63t64 -26z" />
    <glyph glyph-name="slash" unicode="/" horiz-adv-x="452" 
d="M119 -145l331 961h-118l-330 -961h117z" />
    <glyph glyph-name="zero" unicode="0" horiz-adv-x="653" 
d="M546 635q87 -87 87 -212v-151q0 -126 -87 -211q-88 -88 -212 -88q-122 0 -210 88q-88 86 -88 211v151q0 124 88 212q87 87 211 87t211 -87zM417 272v151q0 34 -24 58.5t-58 24.5t-58 -24t-24 -59v-151q0 -34 23.5 -58t57.5 -24q35 0 59 24t24 58z" />
    <glyph glyph-name="one" unicode="1" horiz-adv-x="444" 
d="M49 694h354v-694h-207v487h-133z" />
    <glyph glyph-name="two" unicode="2" horiz-adv-x="624" 
d="M385 201h197v-201h-528l1 177q276 220 280 225q21 19 30 36q1 4 1 10q0 23 -15.5 38.5t-39.5 15.5q-20 0 -35.5 -13.5t-17.5 -33.5l-212 45q15 79 75 139q79 79 190 79q127 0 199 -77q74 -79 72 -196q0 -34 -12 -65q-22 -56 -67 -91z" />
    <glyph glyph-name="three" unicode="3" horiz-adv-x="569" 
d="M548 693l-125 -244q52 -27 86.5 -81t34.5 -127q0 -113 -79 -192t-192 -79q-99 0 -174 63.5t-92 159.5l182 46q31 -61 84 -61q26 0 43 18t20 45q2 16 -4.5 37.5t-26.5 29.5l-118 45l108 154l-242 5l-9 181h504z" />
    <glyph glyph-name="four" unicode="4" horiz-adv-x="621" 
d="M372 460h207v-460h-207v166h-339v195v0v0l153 333h228l-153 -333h111v99z" />
    <glyph glyph-name="five" unicode="5" horiz-adv-x="541" 
d="M524 230q0 -90 -58 -167t-162 -93q-98 -15 -182 36.5t-115 143.5l182 73q38 -53 90 -45q25 4 38.5 21.5t9.5 39.5q-3 23 -19.5 34t-61.5 11h-212l22 409h420l-7 -172h-223l-5 -68q89 0 133 -9.5t76 -36.5q74 -63 74 -177z" />
    <glyph glyph-name="six" unicode="6" horiz-adv-x="593" 
d="M353 506q93 -19 154.5 -93.5t61.5 -171.5q0 -113 -79.5 -192t-191.5 -79t-191 79.5t-79 191.5q0 75 36 147l146 305l228 1zM298 178q26 0 44.5 18.5t18.5 44.5t-18.5 44t-44.5 18q-30 0 -47 -22l-3 -4q-4 -4 -8 -14t-4 -22q0 -26 18 -44.5t44 -18.5z" />
    <glyph glyph-name="seven" unicode="7" horiz-adv-x="526" 
d="M-2 693l532 1l-236 -694h-220l165 488h-227z" />
    <glyph glyph-name="eight" unicode="8" horiz-adv-x="542" 
d="M469 56q81 77 81 196q0 113 -75 191q10 37 10 69q0 89 -64 153q-60 63 -150 63q-87 0 -151 -63q-64 -66 -64 -153q0 -37 13 -69q-78 -78 -78 -191q0 -116 82 -196q81 -82 198 -82q119 0 198 82zM271 303q21 0 36 -15q13 -12 13 -27q2 -3 2 -8q0 -20 -14.5 -36.5
t-36.5 -16.5q-18 0 -34.5 16t-16.5 36q0 22 16 36.5t35 14.5zM271 548q15 0 26 -9q10 -13 10 -26q0 -15 -10 -26.5t-26 -11.5q-14 0 -25 11.5t-11 25.5q0 16 11 26t25 10z" />
    <glyph glyph-name="nine" unicode="9" horiz-adv-x="585" 
d="M566 449q0 -48 -18 -97v0q-5 -14 -14 -30l-147 -322h-229l84 183q-94 19 -156 94t-62 172q0 112 79.5 191t191.5 79t191.5 -79t79.5 -191zM295 386q26 0 44.5 18.5t18.5 44.5t-18.5 44t-44.5 18t-44.5 -18t-18.5 -44t18.5 -44.5t44.5 -18.5z" />
    <glyph glyph-name="colon" unicode=":" horiz-adv-x="291" 
d="M143 410q38 0 64 26t26 63t-26.5 63.5t-63.5 26.5t-63.5 -26.5t-26.5 -63.5t26.5 -63t63.5 -26zM151 158q37 0 63.5 26t26.5 63t-26.5 63.5t-63.5 26.5t-63.5 -26.5t-26.5 -63.5t26 -63t64 -26z" />
    <glyph glyph-name="semicolon" unicode=";" horiz-adv-x="272" 
d="M226 77q0 -15 -1 -18v-2l-59 -157l-99 37l23 63q-44 27 -44 77q0 37 26.5 63.5t63.5 26.5q38 0 64 -26.5t26 -63.5zM136 251q38 0 64 26t26 63t-26.5 63.5t-63.5 26.5t-63.5 -26.5t-26.5 -63.5t26.5 -63t63.5 -26z" />
    <glyph glyph-name="less" unicode="&#x3c;" horiz-adv-x="486" 
d="M318 32l-268 268l268 268l110 -110l-157 -158l157 -158z" />
    <glyph glyph-name="equal" unicode="=" horiz-adv-x="430" 
d="M56 193h316v104h-316v-104zM56 344h316v104h-316v-104z" />
    <glyph glyph-name="greater" unicode="&#x3e;" horiz-adv-x="459" 
d="M409 302l2 -3l-268 -268l-111 111l158 157l-158 158l111 110z" />
    <glyph glyph-name="question" unicode="?" horiz-adv-x="500" 
d="M261 -37q45 0 77.5 32t32.5 78t-32.5 78.5t-77.5 32.5q-46 0 -78.5 -32.5t-32.5 -78.5t32.5 -78t78.5 -32zM328 702q89 -34 128 -121.5t5 -176.5q-12 -32 -32.5 -54t-70.5 -47l-7 -83h-185l-10 195l62 -1q40 0 58 16q16 14 21 38q5 22 -3.5 41.5t-28.5 27.5q-21 8 -41 -1
t-28 -30v-1l-1 -1l-165 65q1 0 1 1q34 89 121.5 127.5t175.5 4.5z" />
    <glyph glyph-name="at" unicode="@" horiz-adv-x="616" 
d="M52 158h514v109h-514v-109zM572 508v92h-247v-92h78v-205h92v205h77zM272 304l-13 38h-95l-13 -39l-98 1l102 294v2h1h1h108h1l103 -296h-97zM190 418h42l-21 60z" />
    <glyph glyph-name="A" unicode="A" horiz-adv-x="739" 
d="M512 0l-32 91h-221l-32 -92l-228 1l241 694h258l241 -694h-227zM320 268h98l-49 141z" />
    <glyph glyph-name="B" unicode="B" horiz-adv-x="664" 
d="M593 369q63 -63 63 -150q0 -93 -63 -154q-63 -65 -182 -65h-370v693l315 1q65 0 103.5 -15t71.5 -48q52 -53 52 -147q0 -67 -31 -94q22 -2 41 -21zM356 534h-106v-101h98q28 0 43 15t15 36t-14.5 35.5t-35.5 14.5zM447 181q16 16 16 38t-15.5 37t-36.5 15h-161v-106h148
q33 0 49 16z" />
    <glyph glyph-name="C" unicode="C" horiz-adv-x="656" 
d="M637 52l22 22l-135 161l-3 -3q-38 -38 -123 -38q-75 0 -117 43q-40 39 -40 108q0 65 46 110q45 46 111 46q65 0 111 -46l2 -2l121 182q-109 83 -234 83q-154 0 -263 -109t-109 -264q0 -154 109 -263t263 -109q82 0 130.5 15t108.5 64z" />
    <glyph glyph-name="D" unicode="D" horiz-adv-x="695" 
d="M569 101q102 103 102 247q0 143 -102 245q-103 102 -245 102h-284v-695h284q143 0 245 101zM456 346q0 -54 -39 -92q-19 -19 -45 -28.5t-44 -10.5t-51 0h-22v264h69q60 0 95 -41q37 -40 37 -92z" />
    <glyph glyph-name="E" unicode="E" horiz-adv-x="578" 
d="M542 504h-285v-65h280v-174h-280v-69h286v-196h-502v694h501v-190z" />
    <glyph glyph-name="F" unicode="F" horiz-adv-x="581" 
d="M544 502h-287v-78h284v-174h-284v-250h-215v694h502v-192z" />
    <glyph glyph-name="G" unicode="G" horiz-adv-x="773" 
d="M756 396v-42v-9q0 -160 -103 -263q-111 -109 -263 -109t-263 109q-109 109 -109 263q0 155 109 263q110 110 263 110t263 -110l-160 -146q-39 39 -103 39q-65 0 -111 -46q-45 -45 -45 -110t45 -111q47 -45 111 -45q65 0 110 45q13 13 21 25h-120v137h355z" />
    <glyph glyph-name="H" unicode="H" horiz-adv-x="707" 
d="M667 0v694h-216v-238h-193v238h-217v-694h217v240h193v-240h216z" />
    <glyph glyph-name="I" unicode="I" horiz-adv-x="297" 
d="M256 0v694h-216v-694h216z" />
    <glyph glyph-name="J" unicode="J" horiz-adv-x="410" 
d="M375 297v396h-216v-396q0 -61 -41 -102q-40 -42 -100 -42v-215q148 0 253 105q104 105 104 254z" />
    <glyph glyph-name="K" unicode="K" horiz-adv-x="703" 
d="M548 -129l171 129l-267 353l213 214l-152 153l-253 -254v227h-216v-693h216v240z" />
    <glyph glyph-name="L" unicode="L" horiz-adv-x="496" 
d="M477 0v216h-221v478h-215v-694h436z" />
    <glyph glyph-name="M" unicode="M" horiz-adv-x="792" 
d="M552 694h215v-694h-215v336l-147 -195l-150 198v-339h-215v694h215v-1h1l148 -194l148 193v2z" />
    <glyph glyph-name="N" unicode="N" horiz-adv-x="735" 
d="M693 694v-694h-213l-2 -1l-223 321v-320h-215v693l215 1l222 -316v316h216z" />
    <glyph glyph-name="O" unicode="O" horiz-adv-x="771" 
d="M649 82q110 110 110 263q0 155 -110 263q-110 110 -263 110t-263 -110q-109 -109 -109 -263q0 -152 109 -263q111 -109 263 -109t263 109zM496 455q47 -44 47 -110q0 -65 -47 -111q-46 -45 -110 -45t-111 45q-45 46 -45 111t45 110q46 46 111 46q64 0 110 -46z" />
    <glyph glyph-name="P" unicode="P" horiz-adv-x="704" 
d="M597 187q87 87 87 211t-87 211q-85 85 -212 85h-343v-694h217v100h126q125 0 212 87zM385 480q35 0 58.5 -24t23.5 -58t-24 -58.5t-58 -24.5h-126v165h126z" />
    <glyph glyph-name="Q" unicode="Q" horiz-adv-x="762" 
d="M758 347q0 -153 -110 -263q-77 -77 -174 -99v-85h-177v85q-99 23 -175 99q-109 111 -109 263q0 154 109 263q110 110 264 110t262 -110q110 -108 110 -263zM495 236q47 46 47 111q0 66 -47 110q-45 46 -109 46q-66 0 -111 -46q-46 -45 -46 -110t46 -111q11 -11 22 -18v86
h177v-86q2 2 6.5 5.5t8 6.5t6.5 6z" />
    <glyph glyph-name="R" unicode="R" horiz-adv-x="755" 
d="M775 1l-173 -130l-174 231q-42 -3 -44 -3h-127v-99h-217v694h344q129 0 212 -83q88 -88 88 -212q0 -107 -67 -188zM257 316h127q34 0 58 24.5t24 58.5t-24 58t-58 24h-127v-165z" />
    <glyph glyph-name="S" unicode="S" horiz-adv-x="616" 
d="M417 425q-31 5 -69 12l-80 15q-29 11 -21 42q5 20 26.5 22.5t68.5 -2.5l172 -19l45 200q-139 24 -214 28q-145 6 -218 -51q-46 -35 -67 -79.5t-30 -109.5q-8 -64 27 -124.5t106 -75.5q30 -7 92 -16l65 -9q26 -3 39 -12.5t13 -18.5v-17q-5 -25 -35 -28.5t-59 1.5
q-35 2 -81.5 7.5t-74.5 9.5l-29 4l-42 -207q123 -24 205 -26q60 -1 87 -0.5t75 11t78 33.5q45 36 66.5 80.5t31.5 108.5q10 76 -37 140.5t-140 80.5z" />
    <glyph glyph-name="T" unicode="T" horiz-adv-x="604" 
d="M590 481v213h-577v-213h181v-481h215v481h181z" />
    <glyph glyph-name="U" unicode="U" horiz-adv-x="678" 
d="M421 693h216v-422q0 -125 -87 -211q-88 -88 -212 -88q-121 0 -211 88q-87 86 -87 211v422h216v-422q0 -34 24 -58t58 -24q35 0 59 24t24 58v422z" />
    <glyph glyph-name="V" unicode="V" horiz-adv-x="758" 
d="M500 0h-244l-260 693h230l152 -404l153 404h230z" />
    <glyph glyph-name="W" unicode="W" horiz-adv-x="977" 
d="M364 0h-220l-143 693h220l85 -411l182 267l182 -267l86 411h220l-144 -693h-220l1 2l-1 -1l-123 189l-124 -189l-1 1v-2z" />
    <glyph glyph-name="X" unicode="X" horiz-adv-x="730" 
d="M-13 0l249 359l-234 335h262l103 -146l103 146h263l-234 -335l248 -359h-262l-118 170l-117 -170h-263z" />
    <glyph glyph-name="Y" unicode="Y" horiz-adv-x="712" 
d="M712 694h-249l-107 -182l-107 182h-249l248 -429v-265h216v265z" />
    <glyph glyph-name="Z" unicode="Z" horiz-adv-x="651" 
d="M374 217l277 477h-625v-215h249l-276 -479h624v217h-249z" />
    <glyph glyph-name="bracketleft" unicode="[" horiz-adv-x="236" 
d="M202 698h-66v-707h66v-105h-181v917h181v-105z" />
    <glyph glyph-name="bracketright" unicode="]" horiz-adv-x="235" 
d="M34 -9h66v707h-66v105h181v-917h-181v105z" />
    <glyph glyph-name="underscore" unicode="_" horiz-adv-x="500" 
d="M19 0h456v93h-456v-93z" />
    <glyph glyph-name="a" unicode="a" horiz-adv-x="628" 
d="M586 612h-121v-33h121v-75h-121v-105h-91v294h212v-81zM304 435q46 46 46 111t-46 111t-111 46t-111 -46t-46 -111t46 -111t111 -46t111 46zM239 592q20 -17 20 -46q0 -28 -20 -47q-18 -19 -46 -19t-47 19t-19 47t19 46q20 20 47 20q28 0 46 -20zM41 253h544v110h-544
v-110z" />
    <glyph glyph-name="b" unicode="b" horiz-adv-x="651" 
d="M562 435q46 46 46 111t-46 111t-111 46t-111 -46t-46 -111t46 -111t111 -46t111 46zM497 592q20 -17 20 -46q0 -28 -20 -47q-19 -19 -46 -19q-28 0 -47 19t-19 47t19 46q20 20 47 20q26 0 46 -20zM284 602v91h-244v-91h77v-203h91v203h76zM40 254h570v109h-570v-109z" />
    <glyph glyph-name="c" unicode="c" horiz-adv-x="586" 
d="M40 252h523v109h-523v-109zM273 556q27 -27 27 -65t-27 -65t-77 -27h-138h-18v294h133q48 0 74 -26q25 -25 25 -62q0 -22 -9 -40q6 -4 10 -9zM173 626h-42v-43h39q10 0 18 6q6 7 6 16q0 8 -6 14.5t-15 6.5zM212 475q6 8 6 16q0 9 -6.5 15.5t-15.5 6.5h-65v-44h60
q15 0 21 6zM569 693h-106l-45 -78l-45 78h-105l105 -182v-112h91v112z" />
    <glyph glyph-name="d" unicode="d" horiz-adv-x="652" 
d="M40 253h515v110h-515v-110zM317 693v-294h-90l-1 -1l-94 136v-135h-91v294l91 1l94 -136v135h91zM650 411l-73 -55l-65 86q-6 -1 -18 -1h-54v-42h-91v294h145q53 0 89 -36q37 -37 37 -90q0 -47 -28 -79zM440 532h54q14 0 24.5 10.5t10.5 24.5t-10.5 24.5t-24.5 10.5h-54
v-70z" />
    <glyph glyph-name="e" unicode="e" horiz-adv-x="934" 
d="M40 255h853v110h-853v-110zM857 443q43 45 43 104t-43 104q-43 43 -104 43h-120v-294h120q59 0 104 43zM809 547q0 -22 -16 -39q-18 -17 -60 -17h-9v112h29q26 0 41 -18q15 -17 15 -38zM204 694h91v-178q0 -53 -37 -89q-36 -37 -89 -37q-52 0 -89 37t-37 89v178h91v-178
q0 -14 10.5 -24.5t24.5 -10.5t24.5 10.5t10.5 24.5v178zM603 694v-294h-90l-1 -1l-94 135v-135h-91v295h91l94 -135v135h91z" />
    <glyph glyph-name="f" unicode="f" horiz-adv-x="976" 
d="M255 397l-14 38h-94l-14 -39l-97 1l104 296h108h1l103 -296h-97zM173 511h42l-21 60zM38 254h878v109h-878v-109zM884 442q44 44 44 104q0 59 -44 103q-42 44 -103 44h-120v-294h120q61 0 103 43zM837 545q0 -22 -16 -39q-19 -18 -60 -16h-9v111h29q26 0 40 -17
q16 -17 16 -39zM631 692v-294h-91l-94 135v-136h-91v295l91 1l94 -136v135h91z" />
    <glyph glyph-name="g" unicode="g" horiz-adv-x="377" 
d="M299 435q46 46 46 111t-46 111t-111 46t-111 -46t-46 -111t46 -111t111 -46t111 46zM234 592q20 -17 20 -46q0 -28 -20 -47q-19 -19 -46 -19q-28 0 -47 19t-19 47t19 46q20 20 47 20q26 0 46 -20zM38 254h300v109h-300v-109z" />
    <glyph glyph-name="x" unicode="x" horiz-adv-x="475" 
d="M435 212l-113 -113l-84 85l-85 -85l-113 113l85 85l-85 85l113 112l85 -84l84 84l113 -112l-85 -85z" />
    <glyph glyph-name="bar" unicode="|" horiz-adv-x="190" 
d="M145 -110v925h-101v-925h101z" />
    <glyph glyph-name="degree" unicode="&#xb0;" horiz-adv-x="362" 
d="M285 466q44 44 44 105q0 62 -44 104q-43 44 -105 44t-105 -44q-43 -42 -43 -104t43 -105t105 -43t105 43zM224 615q19 -18 19 -44t-19 -44q-19 -19 -44 -19t-44 19q-18 18 -18 44t18 44t44 18t44 -18z" />
    <glyph glyph-name="periodcentered" unicode="&#xb7;" horiz-adv-x="362" 
d="M299 222v237h-237v-237h237z" />
    <glyph glyph-name="Adieresis" unicode="&#xc4;" horiz-adv-x="739" 
d="M512 0l-32 91h-221l-32 -92l-228 1l241 694h258l241 -694h-227zM320 268h98l-49 141zM128 631q38 0 64 26t26 63t-26.5 63.5t-63.5 26.5t-63.5 -26.5t-26.5 -63.5t26.5 -63t63.5 -26zM611 629q38 0 64 26t26 63t-26.5 63.5t-63.5 26.5t-63.5 -26.5t-26.5 -63.5t26.5 -63
t63.5 -26z" />
    <glyph glyph-name="Odieresis" unicode="&#xd6;" horiz-adv-x="783" 
d="M96 631q38 0 64 26t26 63t-26.5 63.5t-63.5 26.5t-63.5 -26.5t-26.5 -63.5t26.5 -63t63.5 -26zM651 82q110 110 110 263q0 155 -110 263q-110 110 -263 110t-263 -110q-109 -109 -109 -263q0 -152 109 -263q111 -109 263 -109t263 109zM498 455q47 -44 47 -110
q0 -65 -47 -111q-47 -45 -110 -45q-64 0 -111 45q-45 46 -45 111t45 110q46 46 111 46q64 0 110 -46zM685 629q38 0 64 26t26 63t-26.5 63.5t-63.5 26.5t-63.5 -26.5t-26.5 -63.5t26.5 -63t63.5 -26z" />
    <glyph glyph-name="Udieresis" unicode="&#xdc;" horiz-adv-x="686" 
d="M421 606h216v-335q0 -125 -87 -211q-88 -88 -212 -88q-121 0 -211 88q-87 86 -87 211v335h216v-335q0 -34 24 -58t58 -24q35 0 59 24t24 58v335zM146 631q38 0 64 26t26 63t-26.5 63.5t-63.5 26.5t-63.5 -26.5t-26.5 -63.5t26.5 -63t63.5 -26zM526 629q38 0 64 26t26 63
t-26.5 63.5t-63.5 26.5t-63.5 -26.5t-26.5 -63.5t26.5 -63t63.5 -26z" />
    <glyph glyph-name="quotedblbase" unicode="&#x201e;" horiz-adv-x="415" 
d="M295 153l-106 -38l87 -156l106 38zM143 153l-106 -38l86 -156l106 38z" />
    <glyph glyph-name="bullet" unicode="&#x2022;" horiz-adv-x="342" 
d="M300 157v257h-257v-257h257z" />
    <glyph glyph-name="Euro" unicode="&#x20ac;" horiz-adv-x="692" 
d="M674 52l22 22l-135 161l-3 -3q-38 -38 -123 -38q-75 0 -117 43q-10 10 -14 15h86l9 81h-121v12v12h123l10 81h-103q2 2 6 8.5t7 9.5q44 45 114 45q65 0 111 -46l2 -2l121 182q-109 83 -234 83q-154 0 -263 -109q-75 -75 -99 -171h-69v-81h59v-12v-12h-59v-81h70
q22 -94 98 -170q109 -109 263 -109q82 0 130.5 15t108.5 64z" />
    <glyph glyph-name="trademark" unicode="&#x2122;" horiz-adv-x="232" 
d="M174 694h31v-99h-31v48l-21 -28l-21 28v-48h-31v68h-25v-68h-31v68h-25v31h112v0l21 -28z" />
    </font>
</defs>
</svg>
